<svg t="1690642969857" class="icon" viewBox="0 0 1024 1024" version="1.1" xmlns="http://www.w3.org/2000/svg" p-id="6643"
  width="300" height="300">
  <path d="M128 298.688h768v512a128 128 0 0 1-128 128H256a128 128 0 0 1-128-128v-512z" fill="#366ef4" opacity=".25"
    p-id="6644"></path>
  <path
    d="M384 554.688C384 531.072 403.072 512 426.688 512h170.624a42.688 42.688 0 0 1 0 85.312H426.688A42.688 42.688 0 0 1 384 554.688zM85.312 170.688c0-47.168 38.208-85.376 85.376-85.376h682.624c47.168 0 85.376 38.208 85.376 85.376V256c0 47.104-38.208 85.312-85.376 85.312H170.688A85.312 85.312 0 0 1 85.312 256V170.688z"
    fill="#366ef4" p-id="6645"></path>
</svg>