<svg t="1690733794815" class="icon" viewBox="0 0 1024 1024" version="1.1" xmlns="http://www.w3.org/2000/svg"
  p-id="19043" width="300" height="300">
  <path
    d="M956.96 69.312H67.136c-35.52 0-64.416 28.896-64.416 64.416v612.256c0 35.488 28.928 64.416 64.416 64.416h48.416c2.944 9.056 8.288 17.984 16.352 26.368 1.984 2.048 4.512 3.52 7.264 4.256 80.704 20.896 100.736 46.88 105.472 60.512a31.68 31.68 0 0 1-4 27.968 15.456 15.456 0 0 0 24.288 19.04c7.328-9.248 17.472-31.52 9.152-56.448-11.456-34.144-52.736-60.992-122.624-79.776-5.792-6.912-7.552-12.608-7.552-17.216v-0.096c0.032-6.176 3.904-12.384 10.912-17.76l0.64-0.448c2.016-1.472 4.256-2.912 6.72-4.192 0.576-0.352 1.184-0.608 1.76-0.896 2.976-1.472 6.368-2.624 9.728-3.84 5.376-1.312 15.072-3.04 30.464-3.04 27.008 0 58.528 5.312 93.632 15.648 5.856 2.56 11.744 5.216 17.664 8.352 1.792 0.96 3.584 1.984 5.376 3.04 7.424 4.16 14.88 8.736 22.368 13.888 0.64 0.48 1.28 0.768 1.92 1.248 118.048 82.88 104.864 124.704 104.96 124.704a15.456 15.456 0 1 0 27.264 14.4c4.832-9.152 20.992-55.392-76.928-135.744h273.12c-97.952 80.384-81.824 126.624-76.992 135.744a16.16 16.16 0 0 0 14.176 8.544 14.656 14.656 0 0 0 6.912-1.728 15.04 15.04 0 0 0 6.624-20.448c-0.16-0.416-14.016-42.24 104.608-125.504a270.56 270.56 0 0 1 47.552-26.56c34.976-10.272 66.432-15.584 93.376-15.584a131.2 131.2 0 0 1 30.4 3.008c3.392 1.216 6.88 2.368 9.824 3.904l1.664 0.8c2.592 1.376 5.024 2.88 7.104 4.48l0.288 0.192c7.072 5.376 10.944 11.616 10.976 17.824l0.064 0.256c-0.064 4.576-1.888 10.208-7.584 17.056-69.952 18.784-111.2 45.632-122.624 79.776a62.4 62.4 0 0 0 9.152 56.448 15.424 15.424 0 1 0 24.16-19.168c-0.096-0.128-9.184-12.224-4.032-27.488 4.576-13.696 24.416-39.84 105.6-60.896a15.392 15.392 0 0 0 7.264-4.256c8.096-8.384 13.504-17.408 16.384-26.528a64.384 64.384 0 0 0 62.976-64.256V133.76a64.32 64.32 0 0 0-64.288-64.416zM166.592 365.472h137.376c5.792 20.416 15.712 72.256-7.52 137.728l-1.664 4.576c-11.264 31.328-25.28 70.304 5.856 150.88 19.04 49.184 7.328 77.184-0.672 89.088l-0.064-0.032-4.096-1.568a242.4 242.4 0 0 0-53.024-13.6l-4.352-0.576a212.128 212.128 0 0 0-22.976-1.408c-1.664 0-3.264 0.096-4.928 0.16a174.72 174.72 0 0 0-17.792 1.312l-4.544 0.512c-1.216 0.192-2.304 0.48-3.488 0.672 5.376-25.568 9.024-63.328-7.808-88.608-18.016-27.232-22.24-111.072-0.32-174.368 9.408-27.296-1.952-76.544-9.952-104.704z m606.688 293.184c31.168-80.64 17.088-119.616 5.792-150.976l-1.6-4.48c-23.232-65.504-13.312-117.312-7.488-137.728h137.376c-8.064 28.16-19.424 77.408-9.984 104.704 21.856 63.36 17.696 147.232-0.32 174.336-16.864 25.312-13.216 63.072-7.84 88.64-1.216-0.256-2.304-0.512-3.552-0.672-0.992-0.16-2.048-0.224-3.072-0.384-6.4-0.864-13.12-1.312-20.096-1.472-0.928-0.032-1.824-0.096-2.752-0.096-25.792-0.128-55.008 4.992-85.76 17.184-8.032-11.84-19.744-39.872-0.704-89.088z m217.216 87.328a33.6 33.6 0 0 1-32.192 33.504 53.312 53.312 0 0 0-9.92-17.024c-0.64-0.704-1.408-1.376-2.08-2.08l-0.736-0.736a65.408 65.408 0 0 0-10.368-8.704 80.256 80.256 0 0 0-7.072-4.384c-1.056-0.608-1.952-1.312-3.072-1.92-0.352-0.192-0.768-0.288-1.12-0.48l-0.096-0.064c-5.856-19.744-14.56-62.336-1.088-82.528 25.696-38.72 27.456-132.896 3.776-201.536-6.4-18.496 3.552-63.968 12.992-94.624h6.048a15.424 15.424 0 0 0 0-30.848h-200.064a15.264 15.264 0 1 0-6.976 28.992c-6.944 27.52-14.4 81.792 9.792 149.888l1.664 4.672c10.048 27.872 21.44 59.488-5.568 129.312-21.92 56.576-10.432 93.472 1.216 113.216-10.272 5.44-20.672 11.68-31.104 18.784l-0.032 0.032H359.488c-0.992-0.672-1.984-1.152-3.008-1.824a311.04 311.04 0 0 0-25.28-15.296c-1.024-0.544-2.048-1.248-3.072-1.792 11.68-19.776 23.104-56.64 1.248-113.12-27.008-69.696-15.616-101.28-5.632-129.184l1.696-4.736c24.16-68.096 16.736-122.368 9.792-149.856a15.232 15.232 0 0 0 8.48-13.568 15.424 15.424 0 0 0-15.424-15.424H128.256a15.424 15.424 0 0 0 0 30.848h6.048c9.408 30.656 19.392 76.128 12.992 94.624-23.296 67.392-21.504 163.424 3.776 201.536 13.376 20.096 4.736 62.784-1.12 82.528-0.384 0.224-0.864 0.352-1.248 0.512-1.248 0.64-2.208 1.408-3.36 2.08a82.368 82.368 0 0 0-6.592 4.096l-3.008 2.176a73.44 73.44 0 0 0-7.392 6.496l-0.96 0.928c-0.64 0.64-1.408 1.312-2.016 1.984-1.888 2.176-3.36 4.512-4.832 6.784l-0.16 0.224a49.632 49.632 0 0 0-4.96 10.048H67.008a33.6 33.6 0 0 1-33.568-33.568V133.664a33.6 33.6 0 0 1 33.568-33.568h889.824a33.6 33.6 0 0 1 33.536 33.568V745.92h0.032zM479.392 293.6a15.424 15.424 0 0 0-15.424-15.424c-52.32 0-96.672-32.352-118.016-47.904a166.4 166.4 0 0 0-11.424-7.936 15.424 15.424 0 1 0-15.776 26.56c2.08 1.28 5.12 3.488 9.024 6.368 23.968 17.472 73.792 53.824 136.192 53.824a15.488 15.488 0 0 0 15.424-15.456z m221.152-71.264a192.64 192.64 0 0 0-11.456 7.936c-21.312 15.52-65.664 47.872-117.984 47.872a15.424 15.424 0 0 0 0 30.848c62.4 0 112.224-36.32 136.192-53.792 3.904-2.848 6.944-5.12 9.056-6.368a15.424 15.424 0 1 0-15.808-26.528z m-78.304 419.424l-103.872-46.624a15.424 15.424 0 0 0-13.312 0.32l-91.872 46.624a15.424 15.424 0 1 0 13.952 27.552l85.28-43.264 97.12 43.584a15.392 15.392 0 0 0 20.416-7.776 15.424 15.424 0 0 0-7.712-20.448z"
    p-id="19044" fill="#bfbfbf"></path>
</svg>