<?xml version="1.0" standalone="no"?>
<!DOCTYPE svg PUBLIC "-//W3C//DTD SVG 1.1//EN" "http://www.w3.org/Graphics/SVG/1.1/DTD/svg11.dtd"><svg t="1681176327524"
  class="icon" viewBox="0 0 1024 1024" version="1.1" xmlns="http://www.w3.org/2000/svg" p-id="17436"
  xmlns:xlink="http://www.w3.org/1999/xlink" width="100" height="100">
  <path d="M512 512m-512 0a512 512 0 1 0 1024 0 512 512 0 1 0-1024 0Z" fill="#F8F9FA" p-id="17437"></path>
  <path
    d="M251.843765 440.699482l-123.843765-96.858353L386.963576 230.4l127.090448 91.334776zM514.102212 321.114353l259.650259 115.531294 122.247529-91.919059-262.409035-114.326588z"
    fill="#E7EAEE" p-id="17438"></path>
  <path d="M251.211294 439.5008L514.048 321.114353v302.116141L251.211294 737.581176z" fill="#D0D6DE" p-id="17439">
  </path>
  <path d="M514.048 321.114353l259.704471 115.531294-0.963765 300.941553-258.734682-113.5616z" fill="#B9C0CD"
    p-id="17440"></path>
  <path d="M518.162071 536.021835v308.778165l-266.950777-106.417694v-297.682824z" fill="#D0D6E1" p-id="17441"></path>
  <path d="M518.162071 537.6l-118.350306 154.630024-148.600471-53.766024v-106.435765z" fill="#C5CCD9" p-id="17442">
  </path>
  <path d="M518.162071 844.8V535.931482l255.5904-99.291858 3.144282 298.857411z" fill="#C4CBD7" p-id="17443"></path>
  <path d="M518.162071 536.021835l99.153317 168.580518 158.581459-94.780235-2.144376-173.176471z" fill="#B9C0CE"
    p-id="17444"></path>
  <path
    d="M518.162071 535.973647l116.778164 110.893177 244.6336-120.554918-105.821364-89.672282zM251.241412 440.699482L132.108047 543.141647l265.396706 91.358871 120.651294-97.900424z"
    fill="#E7EAEE" p-id="17445"></path>
</svg>